<?xml version="1.0" standalone="no"?>
<!DOCTYPE svg PUBLIC "-//W3C//DTD SVG 20010904//EN"
 "http://www.w3.org/TR/2001/REC-SVG-20010904/DTD/svg10.dtd">
<svg version="1.0" xmlns="http://www.w3.org/2000/svg"
 width="612.000000pt" height="612.000000pt" viewBox="0 0 612.000000 612.000000"
 preserveAspectRatio="xMidYMid meet">

<g transform="translate(0.000000,612.000000) scale(0.100000,-0.100000)"
fill="#000000" stroke="none">
<path d="M1217 4907 l-768 -762 1 -1080 1 -1080 762 -768 762 -768 1080 1
1080 0 768 761 767 761 0 1081 0 1082 -761 768 -761 767 -1081 0 -1082 -1
-768 -762z m3570 -119 l713 -713 0 -1000 0 -1000 -712 -712 -713 -713 -1005 0
-1005 0 -712 712 -713 713 0 1000 0 1000 712 712 713 713 1005 0 1005 0 712
-712z" fill="#61dafb" />
<path d="M1442 4687 l-672 -672 0 -950 0 -950 673 -673 672 -672 950 0 950 0
673 673 672 672 0 950 0 950 -673 673 -672 672 -950 0 -950 0 -673 -673z
m1358 -747 l0 -80 -65 0 -65 0 0 -795 0 -795 65 0 65 0 0 -80 0 -80 -205 0
-205 0 0 80 0 80 65 0 65 0 0 795 0 795 -65 0 -65 0 0 80 0 80 205 0 205 0 0
-80z m-410 -265 l0 -75 -390 0 -390 0 0 -530 0 -530 390 0 390 0 0 -85 0 -85
-475 0 -475 0 0 690 0 690 475 0 475 0 0 -75z m2290 -615 l0 -690 -945 0 -945
0 0 85 0 85 870 0 870 0 0 530 0 530 -870 0 -870 0 0 75 0 75 945 0 945 0 0
-690z" fill="#61dafb"/>
</g>
</svg>
